<svg version="1" xmlns="http://www.w3.org/2000/svg" width="856" height="856" viewBox="0 0 642.000000 642.000000"><path d="M190.6 55.7c-.3.3-1.6.7-2.8.8-7.5.9-20.9 7.1-28.8 13.4-4.2 3.4-5.9 4.9-11.5 11.2-4.9 5.4-11.4 18.1-13 25.3-.2 1.2-.9 3.8-1.4 5.9-.8 3.5-.8 23.4.1 26.7.3.8 1 3.5 1.7 5.9 6 21.1 23.5 39.2 45.2 46.5 7.3 2.5 11.8 3.1 22.9 3 10.9 0 23.4-2.6 28.4-6 2.3-1.4 2.5-1.3 10.2 8.3 4.3 5.4 8.1 10 8.4 10.3.3.3 3.2 3.9 6.5 8s7 8.6 8.3 10c1.3 1.4 4.2 5 6.5 8s5.4 6.8 7 8.5c1.5 1.6 3 3.9 3.3 5 .2 1.1.3 13.7.2 28l-.3 26H254c-15.1 0-29-.3-30.8-.6-1.7-.4-3.4-.4-3.7 0-.2.4-2.6.5-5.2.2s-21.1-.6-41-.6h-36.2l-.6-2.5c-.9-3.5-7.7-17-8.7-17-.4 0-.8-.6-.8-1.3 0-1.8-9.7-11.7-16-16.3-5.7-4.2-15.8-9.4-18.3-9.4-.7 0-1.7-.3-2.1-.7-3.2-3.2-28.6-3.8-38.9-.9-18.9 5.3-35 18.3-43.8 35.6-1.8 3.6-3.4 6.9-3.6 7.5-.1.5-1.1 4.4-2.2 8.5-1.6 5.9-1.9 9.7-1.6 18 .2 5.8.8 12.3 1.4 14.5 2.1 8 8.7 22.1 11.5 24.4.9.8 1.6 1.7 1.6 2.2 0 1.1 7.4 8.5 12.5 12.5 5.7 4.5 17 10.1 24.6 12.1 8.8 2.3 27.2 2.3 35.8 0 20.6-5.6 38.9-21.5 46.3-40.1 1.1-2.8 2.4-5.6 2.9-6.2.7-.8 11.7-1 39.2-.8 21 .2 53.3.5 71.7.7l33.5.2.3 27.7.2 27.6-10 12.4c-5.6 6.7-11.6 14.1-13.5 16.3-1.8 2.2-7.5 9.2-12.6 15.5-5.2 6.3-9.9 12.1-10.6 12.8-1.4 1.4-3.5 1.1-9.1-1.5-10.8-4.9-32.3-5.3-45.3-.9-16 5.3-28.3 14.6-37.4 28.1-2.5 3.7-7.5 14-8.1 16.6-.2 1-.7 2.9-1 4.2-2.3 8.9-2.9 24.3-1.1 32.2 5.5 24 23.8 44.3 46.7 51.9 29.6 9.7 62.6-1.5 79.8-27.2 8.6-12.9 11.6-23 11.6-39.2 0-13-1.5-20-6.5-30.4-1-2.2-1.5-4.4-1.1-5 .5-.6 3.7-4.7 7.3-9.1 3.5-4.4 6.7-8.4 7.2-9 .4-.5 1.7-2.2 3-3.6 1.2-1.4 4.7-5.7 7.7-9.4s9.2-11.3 13.7-16.8c4.6-5.5 9.3-11.3 10.5-12.9 1.3-1.6 3-3.7 3.8-4.5.8-.9 2.2-2.7 3.1-4l1.7-2.5 8.1 10c4.4 5.6 9.8 12.1 11.8 14.5 2.1 2.4 4.5 5.3 5.3 6.3 6.7 8.4 14.5 18 15 18.4.5.4 15.4 19 18.3 22.8.6.7.6 1.7 0 2.5-1.2 1.5-5.1 11.3-5.9 14.7-1.9 8.2-2.5 14.5-2 22 .6 9 .6 9 2.5 16 1.5 5.1 6.5 15.7 8.7 18.1.8.8 1.4 2 1.4 2.5 0 1.5 11.4 12.9 16.4 16.3 7.8 5.4 17.8 9.8 26.1 11.6 6.5 1.4 19.8 1.7 25.8.5 3.4-.7 7-1.4 7.9-1.5 3.6-.7 14.5-6 19.8-9.6 14.8-10.1 24.3-23.7 28.9-41.3 2.4-9.4 2.2-27.5-.3-34.4-.8-2.3-1.6-4.6-1.7-5-1.6-7.5-9.5-19.9-17.9-28.1-7.5-7.4-23.3-15.7-33.5-17.7-5.2-1-22.8-1.1-28-.1-5.3 1-13.8 3.7-14.9 4.8-2.3 2.1-4.6.4-10.8-7.4-3.6-4.5-7.4-9.2-8.4-10.3-1.1-1.2-3.2-3.9-4.9-6-2.8-3.6-4.2-5.3-13.4-16.3-2-2.4-4.4-5.3-5.3-6.3-1-1-1.8-2-1.8-2.3 0-.3-.9-1.6-2.1-2.8-4.9-5.1-4.8-4.9-4.9-32.2v-27.3c0-.9 14.9-1.2 71.3-1.2h71.3l2.4 5.7c7.4 18.4 21.4 32.1 40.5 39.8 2.2.9 4.9 1.9 6 2.1 1.1.2 3.1.7 4.5 1 5.4 1.4 21.7 1.3 28.4-.2 26.8-5.6 48.5-27.4 54.3-54.4 1.4-6.8.8-26.1-1.1-32.5-2.1-7-8.5-20.5-9.7-20.5-.4 0-1-.9-1.4-2-.9-2.9-10.7-12.4-17.3-16.8-12.8-8.6-25.1-12.2-40.5-11.7-10.5.3-11.3.4-20.4 3-18.1 5.3-35.5 21.5-42.9 39.9l-2.6 6.6H362l-.1-24.8c-.1-13.6 0-25.8.1-27.2.2-2.5 2.7-6.7 6.2-10.5 1-1.1 4.2-4.9 7-8.5 2.9-3.6 5.7-7 6.3-7.6.5-.6 2.4-2.9 4-5 1.7-2.1 4.6-5.7 6.5-7.9 1.9-2.3 4.9-5.9 6.5-8 1.7-2.1 3.5-4.3 4-4.9.6-.6 2.5-3 4.4-5.4 2.2-2.8 3.7-4 4.5-3.4 1.5 1.2 9.6 4.3 12.6 4.9 1.4.2 4.3.8 6.4 1.3 6.4 1.4 20.5.8 28.6-1.3 24.5-6.2 44.1-25.5 50.7-49.7 2.1-8 2.4-28.6.4-34.3-.7-2.1-1.4-4.4-1.5-5-.1-.7-1-2.9-1.9-5.1-.9-2.1-1.7-4-1.7-4.3 0-.2-1.9-3.5-4.3-7.1C496.5 80.7 485.8 69 484 69c-.5 0-1.5-.6-2.2-1.3-2.8-2.8-15.9-9.2-21.3-10.3-16.6-3.6-30.3-2.9-43.4 2.3-19.9 7.9-34.6 23.1-41.5 43-.8 2.4-1.3 4.3-1 4.3.2 0 0 .9-.6 2-.6 1-1.2 4.8-1.5 8.2-.2 3.5-.5 6.5-.6 6.8-.1.3-.1.8-.1 1.1.1.3.3 3.1.6 6.3.8 7.6 2.4 13.7 5.7 21.8l2.8 6.7-10.1 12.3c-5.5 6.8-11 13.4-12.1 14.8-1.2 1.4-4 4.8-6.2 7.5-2.1 2.8-4.2 5.2-4.5 5.5-.3.3-3.4 4.1-6.9 8.5-3.5 4.4-7 8.4-7.6 9-.6.5-1.6 1.7-2.1 2.7-.5.9-2.9 3.9-5.3 6.6l-4.3 5.1-6.1-7.7c-3.4-4.2-10.4-12.9-15.7-19.2-5.2-6.4-11.1-13.6-13-16-1.9-2.4-4.7-5.8-6.1-7.5-5.3-6.2-6.9-8.2-12.2-14.9l-5.5-6.9 2.4-5.5c3.5-7.8 6.3-19.4 6.5-26.7.2-4.6-1.4-17.1-2.6-20.4-.8-2.3-1.4-4.2-1.4-4.4 0-.1-.4-1.4-1-3-.6-1.5-1.6-3.9-2.1-5.3-2.7-6.9-13.3-19.8-21-25.5-7.9-5.7-17.5-10.1-27.6-12.5-3.6-.8-25.1-1.4-25.8-.7zm24.7 42.6c13.6 6.7 20 22.8 14.7 36.9-2.5 6.7-8.6 13.5-15 16.9-6.3 3.3-19.5 3.3-25.7.1-18.4-9.6-22.8-33-9-47.6 6.8-7.1 12.6-9.5 22.8-9.2 4.9.2 8 .9 12.2 2.9zM452 96.8c6.2 2.1 13 8 16.5 14.4 2.5 4.5 2.9 6.4 2.9 13.4.1 7-.3 8.8-2.8 13.8-11.2 22-42.3 21.8-53.7-.5-2.8-5.5-3.5-16.1-1.4-21.9 5.7-16.3 22.3-24.5 38.5-19.2zm-369.6 195c18.3 8.1 23.2 33.3 9.2 47.6-6.6 6.8-11.6 9-21.1 9-9.4.1-14.9-2-21.2-8-6.3-6-8.8-12.3-8.8-21.9.1-8.5 2-13.5 7.5-19.8 7.9-9.1 22.7-12 34.4-6.9zm498.4.5c4.3 1.1 11 5.6 14 9.3 5 6 7 12 6.8 20.5-.2 6.4-.7 8.3-3.5 13.1-5.3 9.5-13.4 14.7-24 15.5-16.9 1.3-31.1-11.2-31.7-28.1-.4-11.1 3.7-19.3 13.3-26.8 5.1-4 17.2-5.7 25.1-3.5zm-365.5 198c10.1 5 15.7 13.7 16.2 25.1.6 12.3-5.6 23-16.5 28.7-6.8 3.5-18.5 3.4-26.1-.3-7.7-3.8-13.7-10.9-15.6-18.1-1.4-5.5-1.1-14.2.7-18.8 6.4-17 25.1-24.5 41.3-16.6zm240 0c10.1 5 15.7 13.7 16.2 25.1.6 12.6-6 23.8-17.1 28.8-7.4 3.4-18.1 3.2-25.5-.4-5.9-2.9-10.6-7.4-13.4-12.8-2.2-4.3-2.7-6.4-3.1-13.4-.6-13.1 8.7-25.8 21.6-29.6 5.4-1.6 15.5-.5 21.3 2.3z"/></svg>